<?xml version="1.0" encoding="UTF-8"?>
<!DOCTYPE svg PUBLIC "-//W3C//DTD SVG 1.1//EN" "http://www.w3.org/Graphics/SVG/1.1/DTD/svg11.dtd">
<!-- Creator: CorelDRAW 2020 (64-Bit) -->
<svg xmlns="http://www.w3.org/2000/svg" xml:space="preserve" width="43.3202mm" height="14.9553mm" version="1.1" style="shape-rendering:geometricPrecision; text-rendering:geometricPrecision; image-rendering:optimizeQuality; fill-rule:evenodd; clip-rule:evenodd"
viewBox="0 0 179.54 61.98"
 xmlns:xlink="http://www.w3.org/1999/xlink"
 xmlns:xodm="http://www.corel.com/coreldraw/odm/2003">
 <defs>
  <style type="text/css">
   <![CDATA[
    .fil4 {fill:none;fill-rule:nonzero}
    .fil6 {fill:#EF7F1A}
    .fil0 {fill:#1F4B99}
    .fil3 {fill:#FEFEFE;fill-rule:nonzero}
    .fil5 {fill:#FEFEFE;fill-rule:nonzero}
    .fil2 {fill:#EF7F1A;fill-rule:nonzero}
    .fil1 {fill:#1F4B99;fill-rule:nonzero}
   ]]>
  </style>
 </defs>
 <g id="Слой_x0020_1">
  <metadata id="CorelCorpID_0Corel-Layer"/>
  <polygon class="fil0" points="10.64,0 174.22,0 167.14,38.52 3.3,38.52 19.31,19.61 "/>
  <path class="fil1" d="M41.79 36.45c0.57,1.71 2.51,2.25 3.98,2.08l121.26 0 3.45 -19.94 -103.91 0 -8.57 0 -15.43 13.77c-0.75,0.88 -1.33,2.7 -0.78,4.09z"/>
  <path class="fil2" d="M39.72 1.78c1.16,-0.47 2.36,-0.06 2.95,0.83 3.48,4.81 7,9.6 10.48,14.4 0.95,1.06 0.7,3.18 -0.64,4.36 -5.59,4.94 -11.19,9.87 -16.78,14.8 -1.14,1.05 -2.8,1.18 -3.72,0.35 -1.14,-0.98 -0.98,-3.22 0.4,-4.52 4.78,-4.22 9.57,-8.45 14.36,-12.66 -2.76,-3.85 -5.56,-7.65 -8.34,-11.48 -0.49,-0.72 -1.18,-1.36 -1.23,-2.36 -0.14,-1.48 1.06,-3.23 2.52,-3.73z"/>
  <path class="fil2" d="M24.08 3.21c1.15,-1.72 3.57,-2.16 4.59,-0.82 3.61,4.87 7.14,9.81 10.72,14.69 0.97,1.18 0.46,3.34 -0.94,4.53 -5.48,4.85 -10.97,9.68 -16.46,14.52 -1.29,1.18 -3.21,1.3 -4.05,0.11 -0.95,-1.12 -0.52,-3.3 0.86,-4.46 4.69,-4.15 9.39,-8.28 14.08,-12.43 -2.97,-4.19 -6.04,-8.29 -9.03,-12.47 -0.75,-0.91 -0.59,-2.5 0.22,-3.67z"/>
  <path class="fil3" d="M71.66 32.87l3.58 0c0.33,0 0.63,-0.06 0.9,-0.19 0.27,-0.12 0.5,-0.3 0.69,-0.54 0.18,-0.24 0.32,-0.52 0.4,-0.84l0.17 -0.69c0.08,-0.33 0.09,-0.61 0.02,-0.85 -0.07,-0.24 -0.21,-0.42 -0.42,-0.55 -0.21,-0.13 -0.48,-0.19 -0.8,-0.19l-3.58 0 0.47 -1.9 3.64 0c0.8,0 1.46,0.13 1.97,0.4 0.51,0.27 0.86,0.66 1.04,1.16 0.18,0.51 0.19,1.11 0.02,1.81l-0.24 0.95c-0.17,0.69 -0.47,1.28 -0.9,1.78 -0.43,0.5 -0.98,0.88 -1.62,1.15 -0.64,0.27 -1.37,0.4 -2.16,0.4l-3.64 0 0.47 -1.9zm1.49 -10.7l2.29 0 -3.12 12.59 -2.29 0 3.12 -12.59zm1.19 0l6.56 0 -0.47 1.9 -6.56 0 0.47 -1.9zm9.71 0l2.29 0 -3.12 12.59 -2.29 0 3.12 -12.59zm-1.62 10.69l6.93 0 -0.47 1.91 -6.93 0 0.47 -1.91zm1.31 -5.3l6.13 0 -0.47 1.91 -6.13 0 0.47 -1.91zm1.33 -5.39l6.93 0 -0.47 1.91 -6.93 0 0.47 -1.91zm9.97 12.72c-0.89,0 -1.62,-0.16 -2.18,-0.47 -0.57,-0.31 -0.95,-0.77 -1.15,-1.36 -0.2,-0.59 -0.19,-1.3 0.01,-2.12l1.22 -4.95c0.2,-0.82 0.55,-1.53 1.04,-2.12 0.49,-0.59 1.1,-1.05 1.82,-1.36 0.72,-0.31 1.53,-0.47 2.42,-0.47 0.86,0 1.57,0.15 2.11,0.45 0.54,0.3 0.91,0.75 1.1,1.35 0.2,0.6 0.22,1.34 0.07,2.22l0 0 -2.34 0 0 0c0.07,-0.45 0.06,-0.83 -0.03,-1.13 -0.09,-0.3 -0.25,-0.53 -0.49,-0.69 -0.24,-0.15 -0.54,-0.23 -0.9,-0.23 -0.4,0 -0.77,0.08 -1.1,0.24 -0.33,0.16 -0.62,0.39 -0.85,0.69 -0.23,0.3 -0.4,0.65 -0.51,1.06l-1.22 4.95c-0.1,0.41 -0.11,0.76 -0.02,1.06 0.09,0.3 0.26,0.53 0.51,0.68 0.25,0.16 0.58,0.24 0.98,0.24 0.37,0 0.71,-0.08 1.02,-0.23 0.31,-0.15 0.58,-0.38 0.82,-0.68 0.24,-0.3 0.44,-0.68 0.59,-1.14l0 0 2.34 0 0 0c-0.29,0.88 -0.67,1.62 -1.17,2.22 -0.49,0.6 -1.08,1.05 -1.77,1.35 -0.69,0.3 -1.47,0.45 -2.33,0.45zm15.79 -12.72l2.29 0 -3.12 12.59 -2.29 0 3.12 -12.59zm-6.37 0l2.29 0 -3.12 12.59 -2.29 0 3.12 -12.59zm1.28 0l6.41 0 -0.47 1.9 -6.41 0 0.47 -1.9zm6.9 10.7l0 0c0.37,0 0.7,-0.08 0.99,-0.23 0.29,-0.15 0.53,-0.38 0.74,-0.69 0.2,-0.31 0.36,-0.69 0.48,-1.15l2.14 -8.63 2.29 0 -2.16 8.72c-0.21,0.85 -0.53,1.57 -0.95,2.15 -0.42,0.57 -0.95,1.01 -1.59,1.29 -0.63,0.29 -1.37,0.43 -2.2,0.43l-0.2 0 0.47 -1.89zm9.94 -10.7l2.29 0 -3.12 12.59 -2.29 0 3.12 -12.59zm-4.18 0l5.29 0 -0.47 1.9 -5.29 0 0.47 -1.9zm12.3 0l1.74 0 1.32 12.59 -2.41 0 -0.61 -9.26 -5.18 9.26 -2.42 0 7.56 -12.59zm-4.09 8.34l5.89 0 -0.46 1.88 -5.89 0 0.46 -1.88zm12.97 -7.3l2.29 0 -2.86 11.55 -2.29 0 2.86 -11.55zm-3.01 -1.04l8.82 0 -0.47 1.9 -8.82 0 0.47 -1.9zm16.73 0l2.29 0 -3.12 12.59 -2.29 0 3.12 -12.59zm-6.37 0l2.3 0 -3.12 12.59 -2.3 0 3.12 -12.59zm-0.1 5.44l6.47 0 -0.47 1.88 -6.47 0 0.47 -1.88zm12.54 7.28c-0.9,0 -1.65,-0.16 -2.24,-0.47 -0.6,-0.31 -1,-0.76 -1.22,-1.34 -0.21,-0.58 -0.23,-1.26 -0.03,-2.05l1.27 -5.14c0.19,-0.79 0.54,-1.47 1.05,-2.05 0.5,-0.58 1.13,-1.03 1.88,-1.34 0.75,-0.31 1.57,-0.47 2.47,-0.47 0.9,0 1.64,0.16 2.24,0.47 0.59,0.31 1,0.76 1.22,1.34 0.22,0.58 0.23,1.26 0.03,2.05l-1.27 5.14c-0.19,0.79 -0.54,1.47 -1.05,2.05 -0.5,0.58 -1.13,1.03 -1.88,1.34 -0.75,0.31 -1.57,0.47 -2.47,0.47zm0.49 -1.97c0.43,0 0.81,-0.08 1.17,-0.23 0.36,-0.16 0.65,-0.38 0.9,-0.67 0.24,-0.29 0.41,-0.63 0.51,-1.01l1.26 -5.1c0.1,-0.39 0.09,-0.72 -0,-1.01 -0.1,-0.29 -0.29,-0.51 -0.57,-0.66 -0.28,-0.15 -0.63,-0.23 -1.06,-0.23 -0.43,0 -0.82,0.08 -1.17,0.23 -0.36,0.15 -0.65,0.37 -0.89,0.66 -0.24,0.29 -0.41,0.63 -0.51,1.01l-1.26 5.1c-0.1,0.39 -0.09,0.73 0,1.01 0.1,0.29 0.29,0.51 0.57,0.67 0.28,0.16 0.63,0.23 1.06,0.23z"/>
  <path class="fil4" d="M49.47 3.34c0.57,-1.71 2.42,-2.8 3.89,-2.63l118.5 0 -3.45 17.87 -101.83 0c0.06,1.12 -0.57,2.33 -1.49,3.13 -5.72,5.06 -11.45,10.1 -17.17,15.15 -1,0.93 -2.43,1.41 -3.46,0.91 -1.42,-0.52 -1.9,-2.5 -1.01,-4.11 0.47,-0.86 1.24,-1.5 1.97,-2.11 4.6,-4.08 9.24,-8.12 13.83,-12.22 -3.03,-4.15 -6.03,-8.31 -9.08,-12.45 -0.75,-0.88 -1.24,-2.15 -0.69,-3.54z"/>
  <path class="fil5" d="M56.99 15.68l0.26 0c0.74,0 1.39,-0.29 1.94,-0.87 0.55,-0.58 0.97,-1.41 1.25,-2.48l2.54 -9.6 2.9 0 -2.49 9.42c-0.29,1.09 -0.72,2.02 -1.28,2.8 -0.57,0.77 -1.28,1.36 -2.12,1.77 -0.85,0.41 -1.81,0.61 -2.91,0.61l-0.52 0 0.44 -1.65zm-0.21 0l2.87 0 -1.42 5.35 -2.87 0 1.41 -5.35zm0 0l13.56 0 -0.61 2.3 -13.56 0 0.61 -2.3zm11.89 0l2.88 0 -1.42 5.35 -2.88 0 1.42 -5.35zm1.34 -12.95l2.96 0 -4.03 15.25 -2.96 0 4.03 -15.25zm-5.12 0l6.47 0 -0.61 2.3 -6.47 0 0.61 -2.3zm14.14 15.4c-1.17,0 -2.13,-0.19 -2.9,-0.57 -0.77,-0.38 -1.29,-0.92 -1.57,-1.62 -0.28,-0.7 -0.29,-1.53 -0.04,-2.48l1.65 -6.23c0.25,-0.95 0.7,-1.78 1.35,-2.48 0.65,-0.7 1.46,-1.24 2.43,-1.62 0.96,-0.38 2.03,-0.57 3.2,-0.57 1.16,0 2.13,0.19 2.89,0.57 0.77,0.38 1.29,0.92 1.57,1.62 0.28,0.7 0.29,1.53 0.04,2.48l-1.65 6.23c-0.25,0.95 -0.7,1.78 -1.35,2.48 -0.65,0.7 -1.46,1.24 -2.43,1.62 -0.97,0.38 -2.03,0.57 -3.19,0.57zm0.63 -2.38c0.55,0 1.05,-0.09 1.51,-0.28 0.46,-0.19 0.85,-0.46 1.16,-0.81 0.31,-0.35 0.53,-0.76 0.66,-1.23l1.63 -6.17c0.12,-0.47 0.12,-0.88 -0.01,-1.23 -0.13,-0.35 -0.37,-0.62 -0.73,-0.8 -0.36,-0.19 -0.81,-0.28 -1.37,-0.28 -0.55,0 -1.06,0.09 -1.52,0.28 -0.46,0.19 -0.84,0.45 -1.16,0.8 -0.31,0.35 -0.53,0.76 -0.66,1.23l-1.63 6.17c-0.12,0.47 -0.12,0.88 0.01,1.23 0.13,0.35 0.37,0.62 0.73,0.81 0.36,0.19 0.82,0.28 1.37,0.28zm13.19 2.38c-1.15,0 -2.09,-0.19 -2.83,-0.57 -0.74,-0.38 -1.23,-0.93 -1.49,-1.65 -0.26,-0.72 -0.25,-1.57 0.01,-2.56l1.58 -5.99c0.26,-0.99 0.71,-1.85 1.35,-2.57 0.63,-0.72 1.42,-1.27 2.36,-1.65 0.94,-0.38 1.98,-0.57 3.13,-0.57 1.12,0 2.03,0.18 2.73,0.55 0.7,0.36 1.17,0.91 1.42,1.63 0.25,0.72 0.28,1.62 0.09,2.69l0 0 -3.03 0 0 0c0.09,-0.55 0.08,-1 -0.04,-1.37 -0.12,-0.37 -0.33,-0.64 -0.63,-0.83 -0.3,-0.19 -0.69,-0.28 -1.17,-0.28 -0.52,0 -0.99,0.1 -1.42,0.29 -0.43,0.2 -0.8,0.48 -1.1,0.83 -0.3,0.36 -0.52,0.79 -0.65,1.28l-1.58 5.99c-0.13,0.5 -0.14,0.92 -0.03,1.29 0.11,0.36 0.33,0.64 0.66,0.83 0.33,0.19 0.75,0.29 1.27,0.29 0.48,0 0.92,-0.09 1.32,-0.28 0.4,-0.18 0.75,-0.46 1.07,-0.83 0.31,-0.37 0.57,-0.83 0.77,-1.38l0 0 3.03 0 0 0c-0.37,1.07 -0.87,1.96 -1.51,2.69 -0.63,0.72 -1.4,1.27 -2.29,1.63 -0.89,0.36 -1.9,0.54 -3.01,0.54zm14.4 -14.14l2.96 0 -3.7 13.99 -2.96 0 3.7 -13.99zm-3.9 -1.26l11.41 0 -0.61 2.3 -11.41 0 0.61 -2.3zm16.63 0l2.25 0 1.71 15.25 -3.12 0 -0.78 -11.21 -6.71 11.21 -3.13 0 9.78 -15.25zm-5.29 10.1l7.62 0 -0.6 2.27 -7.62 0 0.6 -2.27zm13.54 2.87l4.26 0c0.77,0 1.38,-0.14 1.86,-0.42 0.47,-0.28 0.77,-0.67 0.91,-1.18l0.27 -1.03c0.1,-0.39 0.1,-0.71 0.01,-0.98 -0.09,-0.28 -0.29,-0.48 -0.58,-0.63 -0.29,-0.15 -0.68,-0.22 -1.17,-0.22l-4.37 0 0.59 -2.24 4.35 0c0.66,0 1.19,-0.14 1.62,-0.43 0.42,-0.29 0.7,-0.7 0.85,-1.24l0.21 -0.8c0.13,-0.49 0.05,-0.87 -0.24,-1.13 -0.29,-0.26 -0.77,-0.39 -1.45,-0.39l-4.27 0 0.6 -2.27 4.49 0c1.04,0 1.88,0.14 2.53,0.43 0.65,0.29 1.09,0.7 1.32,1.24 0.23,0.54 0.24,1.19 0.04,1.95l-0.21 0.81c-0.14,0.52 -0.37,0.98 -0.72,1.39 -0.34,0.41 -0.78,0.75 -1.31,1.02 -0.53,0.27 -1.14,0.45 -1.81,0.55 0.67,0.08 1.21,0.26 1.64,0.54 0.42,0.29 0.7,0.66 0.84,1.1 0.14,0.45 0.14,0.96 -0.02,1.53l-0.27 1.04c-0.2,0.76 -0.56,1.41 -1.09,1.96 -0.52,0.55 -1.19,0.97 -1.99,1.26 -0.8,0.29 -1.7,0.44 -2.7,0.44l-4.76 0 0.6 -2.28zm1.8 -12.97l2.96 0 -4.03 15.25 -2.96 0 4.03 -15.25zm17.08 6.91l5.53 -6.91 3.3 0 -7.32 8.74 -1.51 -1.83zm-0.47 1.59l2.93 -1.18 3.13 7.93 -3.52 0 -2.54 -6.74zm-2.49 -8.5l2.96 0 -4.03 15.25 -2.96 0 4.03 -15.25zm-0.34 6.52l5.64 0 -0.61 2.3 -5.64 0 0.61 -2.3zm18.99 -6.52l2.25 0 1.71 15.25 -3.12 0 -0.78 -11.21 -6.71 11.21 -3.13 0 9.78 -15.25zm-5.29 10.1l7.62 0 -0.6 2.27 -7.62 0 0.6 -2.27z"/>
  <path class="fil0" d="M16.02 19.17c-3,-4.21 -6.1,-8.33 -9.1,-12.52 -1.08,-1.32 -0.71,-3.35 0.2,-4.65 1.26,-1.87 4.41,-2.94 5.95,-0.89 3.81,5.09 7.49,10.26 11.25,15.36 1.41,1.71 0.46,4.39 -1.07,5.68 -5.76,5.07 -11.52,10.14 -17.28,15.19 -1.44,1.32 -4.01,1.79 -5.26,0.04 -1.41,-1.65 -0.53,-4.36 0.98,-5.62 4.77,-4.2 9.56,-8.39 14.33,-12.6z"/>
  <path class="fil2" d="M10.14 3.21c1.15,-1.72 3.57,-2.16 4.59,-0.82 3.61,4.87 7.14,9.81 10.72,14.69 0.97,1.18 0.46,3.34 -0.94,4.53 -5.48,4.85 -10.97,9.68 -16.46,14.52 -1.29,1.18 -3.21,1.3 -4.05,0.11 -0.95,-1.12 -0.52,-3.3 0.86,-4.46 4.69,-4.15 9.39,-8.28 14.08,-12.43 -2.97,-4.19 -6.04,-8.29 -9.03,-12.47 -0.75,-0.91 -0.59,-2.5 0.22,-3.67z"/>
  <polygon class="fil6" points="54.61,38.52 179.54,38.52 174.84,61.98 49.91,61.98 "/>
  <path class="fil5" d="M63.18 46.05l2.11 0 -2.26 9.69 -2.11 0 2.26 -9.69zm-4.84 0l2.12 0 -2.26 9.69 -2.12 0 2.26 -9.69zm1.18 0l4.89 0 -0.48 2.05 -4.89 0 0.48 -2.05zm9.09 9.83c-0.74,0 -1.33,-0.14 -1.78,-0.41 -0.45,-0.27 -0.75,-0.67 -0.91,-1.19 -0.15,-0.52 -0.14,-1.14 0.03,-1.87l0.72 -3.09c0.17,-0.72 0.45,-1.34 0.84,-1.85 0.39,-0.51 0.88,-0.9 1.46,-1.17 0.58,-0.27 1.23,-0.4 1.97,-0.4 0.73,0 1.32,0.13 1.77,0.4 0.45,0.27 0.75,0.66 0.9,1.17 0.15,0.51 0.14,1.13 -0.02,1.85l-0.73 3.12c-0.17,0.72 -0.45,1.34 -0.84,1.86 -0.39,0.52 -0.88,0.91 -1.45,1.18 -0.58,0.27 -1.24,0.4 -1.96,0.4zm0.46 -2.03c0.42,0 0.78,-0.13 1.07,-0.39 0.29,-0.26 0.5,-0.62 0.61,-1.1l0.7 -2.99c0.11,-0.47 0.08,-0.83 -0.1,-1.08 -0.17,-0.25 -0.47,-0.38 -0.89,-0.38 -0.42,0 -0.78,0.13 -1.07,0.38 -0.3,0.25 -0.5,0.61 -0.61,1.08l-0.7 2.99c-0.11,0.47 -0.08,0.84 0.09,1.1 0.17,0.26 0.47,0.39 0.89,0.39zm12.01 -11.69l2.31 0 0.6 9.93 -1.76 1.71 -1.15 -11.64zm3.38 11.01c-0.32,0.59 -0.66,1.09 -1.04,1.48 -0.38,0.4 -0.79,0.7 -1.26,0.91 -0.46,0.21 -0.97,0.31 -1.52,0.31l-1.23 0 0.49 -2.1 1.09 0c0.27,0 0.52,-0.06 0.76,-0.18 0.24,-0.12 0.46,-0.3 0.67,-0.54 0.21,-0.24 0.4,-0.53 0.59,-0.89l5.02 -10.01 2.21 0 -5.77 11.01zm6.43 2.7c-0.68,0 -1.23,-0.11 -1.65,-0.34 -0.42,-0.23 -0.7,-0.58 -0.84,-1.04 -0.14,-0.46 -0.15,-1.04 -0.03,-1.74l0 0 2.04 0 0 0c-0.07,0.39 -0.03,0.69 0.12,0.89 0.16,0.2 0.42,0.3 0.79,0.3 0.37,0 0.68,-0.08 0.92,-0.25 0.24,-0.17 0.41,-0.41 0.48,-0.72l0.11 -0.47c0.06,-0.27 0.02,-0.48 -0.13,-0.63 -0.15,-0.15 -0.39,-0.22 -0.72,-0.22l-1.19 0 0.42 -1.78 1.19 0c0.25,0 0.46,-0.07 0.63,-0.2 0.17,-0.14 0.29,-0.33 0.35,-0.59l0.09 -0.39c0.06,-0.27 0.02,-0.49 -0.12,-0.64 -0.14,-0.15 -0.37,-0.23 -0.69,-0.23 -0.33,0 -0.62,0.09 -0.85,0.28 -0.23,0.18 -0.41,0.46 -0.53,0.83l0 0 -2.04 0 0 0c0.31,-1 0.79,-1.75 1.44,-2.26 0.65,-0.5 1.47,-0.75 2.45,-0.75 0.96,0 1.65,0.21 2.07,0.64 0.42,0.43 0.54,1.03 0.36,1.82l-0.14 0.62c-0.09,0.39 -0.27,0.73 -0.53,1.02 -0.27,0.29 -0.62,0.52 -1.05,0.67 0.44,0.11 0.75,0.31 0.92,0.61 0.17,0.3 0.2,0.69 0.09,1.18l-0.17 0.72c-0.2,0.86 -0.63,1.53 -1.29,2 -0.67,0.47 -1.5,0.71 -2.51,0.71zm8.55 0c-0.74,0 -1.33,-0.14 -1.78,-0.4 -0.45,-0.27 -0.76,-0.67 -0.91,-1.18 -0.15,-0.51 -0.15,-1.13 0.02,-1.86l0.68 -2.9 1.91 -1.38c0.35,-0.62 0.75,-1.09 1.21,-1.41 0.47,-0.32 1,-0.48 1.6,-0.48 0.62,0 1.13,0.13 1.51,0.4 0.38,0.27 0.63,0.66 0.75,1.16 0.11,0.51 0.09,1.12 -0.08,1.84l-0.65 2.8c-0.17,0.72 -0.45,1.34 -0.84,1.85 -0.39,0.51 -0.87,0.9 -1.45,1.17 -0.58,0.27 -1.23,0.4 -1.96,0.4zm0.44 -1.94c0.42,0 0.77,-0.13 1.07,-0.4 0.29,-0.26 0.5,-0.64 0.61,-1.11l0.64 -2.73c0.11,-0.47 0.08,-0.84 -0.09,-1.1 -0.17,-0.26 -0.47,-0.39 -0.89,-0.39 -0.42,0 -0.77,0.13 -1.06,0.39 -0.29,0.26 -0.5,0.62 -0.61,1.1l-0.64 2.73c-0.11,0.48 -0.08,0.85 0.09,1.11 0.17,0.26 0.46,0.4 0.88,0.4zm-1.8 -7.13c0.18,-0.76 0.45,-1.39 0.81,-1.9 0.36,-0.51 0.83,-0.91 1.4,-1.21 0.57,-0.3 1.25,-0.5 2.06,-0.62 0.28,-0.04 0.51,-0.1 0.7,-0.18 0.19,-0.08 0.34,-0.17 0.45,-0.3 0.11,-0.12 0.19,-0.26 0.23,-0.43l2.06 0c-0.13,0.54 -0.32,0.99 -0.6,1.35 -0.27,0.36 -0.63,0.65 -1.06,0.85 -0.44,0.21 -0.97,0.35 -1.6,0.42 -0.45,0.06 -0.83,0.17 -1.14,0.32 -0.31,0.15 -0.57,0.36 -0.77,0.63 -0.2,0.26 -0.35,0.6 -0.44,1.01l-0.89 3.81 -2.09 0 0.88 -3.76zm10.39 9.07c-0.78,0 -1.41,-0.14 -1.89,-0.43 -0.48,-0.29 -0.8,-0.71 -0.96,-1.27 -0.16,-0.56 -0.15,-1.23 0.04,-2.02l0.55 -2.35c0.19,-0.82 0.5,-1.53 0.91,-2.11 0.42,-0.59 0.93,-1.03 1.53,-1.33 0.6,-0.31 1.28,-0.46 2.03,-0.46 0.72,0 1.3,0.16 1.75,0.49 0.44,0.32 0.72,0.8 0.85,1.43 0.12,0.62 0.08,1.38 -0.13,2.26l-0.39 1.65 -5.46 0 0.38 -1.61 3.43 0 0.14 -0.61c0.12,-0.52 0.09,-0.93 -0.1,-1.23 -0.19,-0.3 -0.5,-0.45 -0.93,-0.45 -0.49,0 -0.91,0.16 -1.25,0.49 -0.34,0.33 -0.59,0.79 -0.73,1.39l-0.59 2.51c-0.13,0.55 -0.09,0.97 0.13,1.27 0.21,0.3 0.58,0.46 1.09,0.46 0.36,0 0.67,-0.09 0.94,-0.26 0.28,-0.17 0.5,-0.42 0.68,-0.74l0 0 1.71 0.65 0 0c-0.36,0.75 -0.85,1.32 -1.49,1.71 -0.64,0.39 -1.39,0.58 -2.25,0.58zm9.91 -5.68l2.61 -4.14 2.28 0 -3.75 5.64 -1.14 -1.49zm-2.2 -4.14l2.14 0 -2.26 9.69 -2.14 0 2.26 -9.69zm1.87 5.64l2.03 -1.13 1.37 5.18 -2.43 0 -0.97 -4.05zm-1.74 -1.8l3.98 0 -0.48 2.05 -3.98 0 0.48 -2.05zm11.15 5.84l1.54 -6.59 0.17 0.24 -4.88 6.35 -1.76 0 2.26 -9.68 2 0 -1.56 6.66 -0.17 -0.24 4.92 -6.42 1.74 0 -2.26 9.68 -1.99 0zm7.73 0.15c-0.76,0 -1.39,-0.14 -1.86,-0.42 -0.48,-0.28 -0.8,-0.69 -0.95,-1.22 -0.16,-0.53 -0.16,-1.18 0.02,-1.93l0.66 -2.81c0.18,-0.76 0.47,-1.41 0.89,-1.95 0.41,-0.54 0.92,-0.95 1.53,-1.23 0.61,-0.28 1.29,-0.42 2.06,-0.42 0.65,0 1.18,0.1 1.59,0.28 0.41,0.19 0.71,0.48 0.9,0.87 0.19,0.39 0.26,0.88 0.22,1.46l0 0 -2.12 0.64 0 0c0.01,-0.42 -0.07,-0.73 -0.25,-0.94 -0.17,-0.21 -0.44,-0.31 -0.8,-0.31 -0.48,0 -0.88,0.14 -1.21,0.43 -0.33,0.29 -0.55,0.7 -0.68,1.22l-0.63 2.71c-0.12,0.52 -0.08,0.91 0.11,1.19 0.2,0.28 0.53,0.42 1.01,0.42 0.36,0 0.67,-0.1 0.94,-0.3 0.28,-0.2 0.5,-0.51 0.68,-0.91l0 0 1.81 0.67 0 0c-0.22,0.57 -0.52,1.05 -0.88,1.42 -0.37,0.38 -0.8,0.66 -1.3,0.84 -0.5,0.18 -1.08,0.27 -1.73,0.27zm8.09 -9.32l2.14 0 -2.14 9.18 -2.14 0 2.14 -9.18zm-2.08 -0.51l6.53 0 -0.47 2.02 -6.53 0 0.47 -2.02zm12.31 3.11c0.1,-0.44 0.06,-0.77 -0.13,-1.01 -0.19,-0.24 -0.51,-0.35 -0.97,-0.35 -0.32,0 -0.63,0.07 -0.92,0.22 -0.29,0.15 -0.54,0.36 -0.74,0.62l-1.58 -0.62c0.34,-0.67 0.84,-1.19 1.48,-1.57 0.65,-0.37 1.39,-0.56 2.22,-0.56 0.71,0 1.3,0.13 1.75,0.38 0.45,0.25 0.75,0.62 0.91,1.1 0.16,0.48 0.15,1.06 -0,1.74l-1.55 6.63 -2.01 0 1.54 -6.58zm-3.7 6.72c-0.94,0 -1.59,-0.24 -1.94,-0.72 -0.36,-0.48 -0.43,-1.2 -0.2,-2.15 0.24,-1.01 0.68,-1.77 1.34,-2.28 0.66,-0.51 1.53,-0.76 2.6,-0.76l1.78 0 -0.27 1.73 -1.88 0c-0.42,0 -0.77,0.11 -1.03,0.33 -0.26,0.22 -0.45,0.55 -0.55,0.98 -0.09,0.37 -0.04,0.64 0.14,0.82 0.17,0.18 0.48,0.27 0.92,0.27 0.54,0 0.97,-0.09 1.29,-0.27 0.32,-0.18 0.52,-0.46 0.61,-0.83l-0.07 1.12c-0.15,0.39 -0.36,0.72 -0.62,0.98 -0.27,0.26 -0.58,0.46 -0.94,0.59 -0.36,0.13 -0.75,0.2 -1.17,0.2zm13.6 -9.83l2.11 0 -2.26 9.69 -2.11 0 2.26 -9.69zm-4.84 0l2.12 0 -2.26 9.69 -2.12 0 2.26 -9.69zm0.29 3.93l4.89 0 -0.47 2 -4.89 0 0.47 -2zm15.66 -3.93l-6.28 11.96c-0.22,0.42 -0.48,0.76 -0.78,1.02 -0.3,0.26 -0.64,0.45 -1.04,0.57 -0.4,0.12 -0.85,0.18 -1.37,0.18l-0.48 0 0.48 -2.07 0.49 0c0.35,0 0.64,-0.07 0.87,-0.21 0.23,-0.14 0.43,-0.38 0.61,-0.72l5.42 -10.72 2.08 0zm-7.75 0l2.08 0 0.58 8.4 -1.67 2.15 -0.99 -10.55z"/>
 </g>
</svg>
