<?xml version="1.0" encoding="UTF-8"?>
<!DOCTYPE svg PUBLIC "-//W3C//DTD SVG 1.1//EN" "http://www.w3.org/Graphics/SVG/1.1/DTD/svg11.dtd">
<!-- Creator: CorelDRAW 2020 (64-Bit) -->
<svg xmlns="http://www.w3.org/2000/svg" xml:space="preserve" width="27.4217mm" height="27.3603mm" version="1.1" style="shape-rendering:geometricPrecision; text-rendering:geometricPrecision; image-rendering:optimizeQuality; fill-rule:evenodd; clip-rule:evenodd"
viewBox="0 0 90.78 90.58"
 xmlns:xlink="http://www.w3.org/1999/xlink"
 xmlns:xodm="http://www.corel.com/coreldraw/odm/2003">
 <defs>
  <style type="text/css">
   <![CDATA[
    .fil2 {fill:#EF7F1A}
    .fil1 {fill:#EA5B21}
    .fil3 {fill:#FEFEFE;fill-rule:nonzero}
    .fil0 {fill:#EF7F1A;fill-rule:nonzero}
   ]]>
  </style>
 </defs>
 <g id="Слой_x0020_1">
  <metadata id="CorelCorpID_0Corel-Layer"/>
  <path class="fil0" d="M21.54 87.51l0.14 -0.14c0.17,-0.17 0.25,-0.35 0.23,-0.55 -0.01,-0.2 -0.11,-0.43 -0.28,-0.68 -0.17,-0.25 -0.43,-0.55 -0.77,-0.89l-3.47 -3.47 1.34 -1.34 3.66 3.66c0.66,0.66 1.01,1.31 1.05,1.94 0.04,0.64 -0.22,1.23 -0.78,1.79l-0.2 0.2 -0.94 -0.52zm-0.23 0.23l1.3 -1.3 2.85 2.85 -1.3 1.3 -2.85 -2.85zm0 0l5.36 -5.36 1.28 1.28 -5.36 5.36 -1.28 -1.28zm4.65 -4.65l1.3 -1.3 2.85 2.85 -1.3 1.3 -2.85 -2.85zm-5.89 -3.98l1.37 -1.37 6.22 6.22 -1.37 1.37 -6.22 -6.22zm-1.94 1.94l2.55 -2.55 1.28 1.28 -2.55 2.55 -1.28 -1.28zm13.49 -0.88c-0.47,0.47 -0.96,0.79 -1.47,0.94 -0.51,0.16 -1.01,0.16 -1.52,-0 -0.51,-0.16 -1,-0.47 -1.47,-0.94l-1.98 -1.98c-0.46,-0.46 -0.77,-0.95 -0.92,-1.45 -0.15,-0.5 -0.15,-1.01 0.01,-1.51 0.16,-0.5 0.47,-0.99 0.95,-1.46 0.47,-0.47 0.95,-0.78 1.46,-0.94 0.5,-0.16 1.01,-0.16 1.51,-0 0.5,0.16 0.99,0.46 1.45,0.93l2 2c0.46,0.46 0.77,0.95 0.93,1.45 0.16,0.5 0.16,1.01 0,1.52 -0.16,0.51 -0.47,0.99 -0.94,1.46zm-1.31 -1.29c0.27,-0.27 0.4,-0.56 0.38,-0.88 -0.02,-0.32 -0.18,-0.63 -0.48,-0.93l-1.92 -1.92c-0.3,-0.3 -0.61,-0.46 -0.92,-0.47 -0.31,-0.01 -0.61,0.11 -0.88,0.39 -0.27,0.27 -0.4,0.56 -0.38,0.88 0.01,0.32 0.17,0.62 0.47,0.92l1.92 1.92c0.3,0.3 0.61,0.47 0.93,0.48 0.31,0.02 0.61,-0.11 0.88,-0.38z"/>
  <path class="fil0" d="M42.29 75.03l-2.06 2.06 -10.79 -10.79 -0.85 2.72 -2.18 -2.18 0.76 -2.88 2.03 -2.03 13.1 13.1zm5.7 -5.43c-0.7,0.7 -1.42,1.16 -2.16,1.38 -0.74,0.22 -1.51,0.2 -2.3,-0.06 -0.79,-0.26 -1.59,-0.78 -2.4,-1.52l0 0 2.06 -2.06 0 0c0.53,0.49 1.03,0.75 1.5,0.79 0.47,0.04 0.9,-0.14 1.3,-0.53 0.4,-0.4 0.59,-0.85 0.56,-1.32 -0.03,-0.48 -0.27,-0.95 -0.73,-1.41l-2.16 -2.16c-0.45,-0.45 -0.91,-0.7 -1.36,-0.74 -0.46,-0.04 -0.87,0.13 -1.25,0.51 -0.3,0.3 -0.47,0.64 -0.52,1.01 -0.04,0.38 0.05,0.75 0.26,1.13l-1.93 1.93 -7.14 -7.14 6.14 -6.14 1.99 1.99 -4.08 4.08 2.77 2.77c0.02,-0.38 0.11,-0.75 0.28,-1.11 0.17,-0.36 0.38,-0.69 0.66,-0.96 0.59,-0.59 1.24,-0.97 1.93,-1.12 0.69,-0.16 1.4,-0.09 2.14,0.21 0.73,0.3 1.46,0.8 2.18,1.52l2.16 2.16c0.73,0.73 1.21,1.48 1.47,2.26 0.26,0.78 0.27,1.55 0.03,2.33 -0.23,0.78 -0.7,1.52 -1.41,2.22z"/>
  <path class="fil0" d="M49.49 49.76l1.28 -1.28 6.22 6.22 -1.22 1.22 -4.31 -4.31 0.4 0.23 1.56 3.55 -0.8 0.8 -3.5 -1.49 -0.28 -0.47 4.31 4.31 -1.22 1.22 -6.22 -6.22 1.28 -1.28 4.53 2.03 -2.04 -4.53zm11.32 1.29c-0.5,0.5 -1.02,0.83 -1.55,1 -0.54,0.17 -1.08,0.16 -1.62,-0.01 -0.54,-0.17 -1.07,-0.51 -1.57,-1.02l-1.51 -1.51c-0.53,-0.53 -0.89,-1.07 -1.08,-1.62 -0.2,-0.56 -0.22,-1.1 -0.08,-1.64 0.14,-0.54 0.46,-1.04 0.94,-1.53 0.46,-0.46 0.97,-0.76 1.51,-0.88 0.54,-0.12 1.1,-0.07 1.67,0.16 0.57,0.23 1.14,0.63 1.71,1.19l1.06 1.06 -3.51 3.51 -1.03 -1.03 2.2 -2.2 -0.39 -0.39c-0.34,-0.34 -0.68,-0.52 -1.04,-0.54 -0.36,-0.03 -0.67,0.1 -0.95,0.38 -0.31,0.31 -0.45,0.66 -0.42,1.04 0.04,0.38 0.25,0.77 0.63,1.15l1.61 1.61c0.35,0.35 0.71,0.53 1.09,0.54 0.38,0.01 0.73,-0.15 1.06,-0.48 0.23,-0.23 0.36,-0.47 0.4,-0.73 0.04,-0.26 -0.01,-0.53 -0.15,-0.8l0 0 1.61 -0.77 0 0c0.37,0.6 0.5,1.2 0.39,1.8 -0.1,0.6 -0.43,1.18 -0.99,1.73zm5.66 -5.66c-0.49,0.49 -1,0.82 -1.53,0.99 -0.53,0.17 -1.05,0.17 -1.58,0.01 -0.53,-0.16 -1.03,-0.48 -1.51,-0.96l-1.8 -1.8c-0.49,-0.49 -0.81,-1 -0.98,-1.53 -0.17,-0.53 -0.16,-1.06 0,-1.59 0.17,-0.53 0.5,-1.04 0.99,-1.53 0.42,-0.42 0.83,-0.71 1.25,-0.88 0.42,-0.17 0.84,-0.22 1.27,-0.15 0.43,0.07 0.86,0.27 1.29,0.58l0 0 -0.86 1.68 0 0c-0.32,-0.21 -0.62,-0.31 -0.9,-0.31 -0.28,0.01 -0.53,0.13 -0.76,0.36 -0.31,0.31 -0.45,0.64 -0.43,0.99 0.02,0.35 0.2,0.7 0.53,1.03l1.74 1.74c0.33,0.33 0.67,0.5 1.02,0.52 0.35,0.01 0.67,-0.13 0.98,-0.44 0.23,-0.23 0.35,-0.48 0.37,-0.75 0.02,-0.28 -0.08,-0.57 -0.29,-0.88l0 0 1.7 -0.83 0 0c0.31,0.43 0.5,0.85 0.56,1.27 0.06,0.42 0.01,0.84 -0.17,1.25 -0.18,0.41 -0.47,0.83 -0.89,1.24zm2.77 -6.94c-0.39,0.39 -0.8,0.65 -1.24,0.78 -0.44,0.13 -0.88,0.14 -1.31,0.01 -0.44,-0.13 -0.85,-0.39 -1.23,-0.77l-0.47 -0.47c-0.38,-0.38 -0.63,-0.79 -0.76,-1.23 -0.13,-0.44 -0.12,-0.89 0.02,-1.33 0.15,-0.45 0.42,-0.87 0.82,-1.27l1.76 -1.76 1.28 1.28 -1.66 1.66c-0.21,0.21 -0.32,0.44 -0.31,0.68 0,0.24 0.11,0.47 0.33,0.69l0.31 0.31c0.14,0.14 0.29,0.24 0.45,0.29 0.16,0.05 0.32,0.06 0.48,0.01 0.16,-0.05 0.31,-0.14 0.45,-0.28l1.66 -1.66 1.23 1.23 -1.82 1.82zm3.17 0.82l-6.22 -6.22 1.35 -1.35 6.22 6.22 -1.35 1.35zm-3.12 3.12l-1.32 -4.09 1.59 -1.05 1.21 3.64 -1.49 1.49zm2.75 -15.19l1.37 -1.37 6.22 6.22 -1.37 1.37 -6.22 -6.22zm2.69 7.15l2.86 -2.86 1.3 1.3 -2.86 2.86 -1.3 -1.3zm-5.69 -4.15l1.37 -1.37 6.22 6.22 -1.37 1.37 -6.22 -6.22zm8.93 0.91l1.37 -1.37 2.86 2.86 -1.37 1.37 -2.86 -2.86zm5.86 -3.07c-0.5,0.5 -1.02,0.83 -1.55,1 -0.54,0.17 -1.08,0.16 -1.62,-0.01 -0.54,-0.17 -1.07,-0.51 -1.57,-1.02l-1.51 -1.51c-0.53,-0.53 -0.89,-1.07 -1.08,-1.62 -0.2,-0.56 -0.22,-1.1 -0.08,-1.64 0.14,-0.54 0.46,-1.04 0.94,-1.53 0.46,-0.46 0.97,-0.76 1.51,-0.88 0.54,-0.12 1.1,-0.07 1.67,0.16 0.57,0.23 1.14,0.63 1.71,1.19l1.06 1.06 -3.51 3.51 -1.03 -1.03 2.2 -2.2 -0.39 -0.39c-0.34,-0.34 -0.68,-0.52 -1.04,-0.54 -0.36,-0.03 -0.67,0.1 -0.95,0.38 -0.32,0.32 -0.45,0.66 -0.42,1.04 0.04,0.38 0.25,0.77 0.63,1.15l1.61 1.61c0.35,0.35 0.71,0.53 1.09,0.54 0.38,0.01 0.73,-0.15 1.06,-0.48 0.23,-0.23 0.36,-0.47 0.4,-0.73 0.04,-0.26 -0.01,-0.53 -0.15,-0.8l0 0 1.61 -0.77 0 0c0.37,0.6 0.5,1.2 0.39,1.8 -0.1,0.6 -0.43,1.18 -0.99,1.73zm2.97 -5.53l1.7 -1.7c0.19,-0.19 0.29,-0.39 0.28,-0.61 -0,-0.21 -0.1,-0.42 -0.3,-0.61l-0.2 -0.2c-0.21,-0.21 -0.44,-0.32 -0.67,-0.32 -0.23,0 -0.46,0.11 -0.67,0.32l-1.63 1.63 -1.17 -1.17 1.63 -1.63c0.18,-0.18 0.27,-0.36 0.27,-0.55 0,-0.19 -0.08,-0.37 -0.25,-0.54l-0.14 -0.14c-0.16,-0.16 -0.33,-0.23 -0.51,-0.23 -0.18,0 -0.36,0.09 -0.53,0.26l-1.65 1.65 -1.19 -1.19 1.86 -1.86c0.53,-0.53 1.07,-0.82 1.61,-0.86 0.54,-0.04 1.03,0.16 1.48,0.61l0.26 0.26c0.34,0.34 0.53,0.72 0.56,1.14 0.03,0.41 -0.1,0.83 -0.38,1.24 0.46,-0.31 0.92,-0.45 1.38,-0.41 0.46,0.04 0.89,0.25 1.27,0.64l0.31 0.31c0.48,0.48 0.7,1 0.65,1.58 -0.05,0.57 -0.35,1.14 -0.91,1.7l-1.88 1.88 -1.19 -1.19zm-5.79 -4.26l1.34 -1.34 6.22 6.22 -1.34 1.34 -6.22 -6.22z"/>
  <polygon class="fil1" points="10.16,85.49 -0,85.49 -0,70.08 10.16,70.08 "/>
  <polygon class="fil1" points="73.23,10.16 73.23,0 88.65,0 88.65,10.16 "/>
  <polygon class="fil2" points="85.49,0 50.98,0 -0,50.98 -0,83.57 "/>
  <path class="fil3" d="M9.37 59.56l2 -2c0.17,-0.17 0.27,-0.35 0.32,-0.56 0.05,-0.2 0.03,-0.41 -0.05,-0.62 -0.08,-0.21 -0.21,-0.41 -0.41,-0.61l-0.54 -0.54c-0.2,-0.2 -0.4,-0.33 -0.62,-0.42 -0.21,-0.08 -0.42,-0.1 -0.63,-0.05 -0.21,0.05 -0.39,0.16 -0.56,0.32l-2 2 -1.2 -1.2 1.99 -1.99c0.44,-0.44 0.9,-0.73 1.39,-0.88 0.49,-0.15 0.98,-0.15 1.48,-0.01 0.49,0.15 0.96,0.44 1.39,0.87l0.65 0.65c0.43,0.43 0.71,0.89 0.85,1.37 0.14,0.49 0.14,0.98 -0.02,1.47 -0.15,0.49 -0.44,0.95 -0.88,1.39l-1.99 1.99 -1.2 -1.2zm-4.29 -3.06l1.25 -1.25 7.96 7.96 -1.25 1.25 -7.96 -7.96zm7.36 -7.36l0.95 -0.95 10.39 5.53 -1.32 1.32 -7.44 -4.27 4.27 7.44 -1.32 1.32 -5.53 -10.39zm4.17 6.38l3.23 -3.23 1.19 1.19 -3.23 3.23 -1.19 -1.19zm10.18 -4.64c-0.49,0.49 -1.01,0.81 -1.56,0.96 -0.55,0.16 -1.11,0.14 -1.67,-0.05 -0.56,-0.19 -1.1,-0.54 -1.62,-1.06l-3.13 -3.13c-0.52,-0.52 -0.87,-1.06 -1.06,-1.62 -0.19,-0.56 -0.21,-1.12 -0.05,-1.67 0.16,-0.55 0.47,-1.07 0.96,-1.56 0.47,-0.47 0.97,-0.78 1.5,-0.93 0.53,-0.15 1.07,-0.13 1.64,0.07 0.57,0.19 1.15,0.55 1.74,1.07l0 0 -1.28 1.28 0 0c-0.31,-0.26 -0.6,-0.44 -0.89,-0.55 -0.28,-0.1 -0.55,-0.13 -0.8,-0.07 -0.25,0.05 -0.47,0.18 -0.67,0.38 -0.22,0.22 -0.36,0.46 -0.42,0.72 -0.06,0.26 -0.04,0.53 0.06,0.81 0.1,0.28 0.28,0.54 0.54,0.8l3.13 3.13c0.26,0.26 0.53,0.44 0.8,0.54 0.27,0.1 0.54,0.12 0.8,0.06 0.26,-0.06 0.5,-0.2 0.72,-0.42 0.2,-0.2 0.33,-0.43 0.38,-0.67 0.05,-0.24 0.03,-0.51 -0.07,-0.79 -0.1,-0.28 -0.28,-0.58 -0.55,-0.89l0 0 1.28 -1.28 0 0c0.52,0.59 0.88,1.18 1.07,1.74 0.19,0.56 0.21,1.11 0.07,1.64 -0.15,0.53 -0.46,1.03 -0.93,1.5zm5.6 -5.6c-0.49,0.49 -1.01,0.81 -1.56,0.96 -0.55,0.16 -1.11,0.14 -1.67,-0.05 -0.56,-0.18 -1.1,-0.54 -1.62,-1.06l-3.13 -3.13c-0.52,-0.52 -0.87,-1.06 -1.06,-1.62 -0.19,-0.56 -0.21,-1.12 -0.05,-1.67 0.16,-0.55 0.47,-1.07 0.96,-1.56 0.47,-0.47 0.97,-0.78 1.5,-0.93 0.53,-0.15 1.07,-0.13 1.64,0.07 0.57,0.19 1.15,0.55 1.74,1.07l0 0 -1.28 1.28 0 0c-0.31,-0.26 -0.6,-0.44 -0.89,-0.55 -0.28,-0.1 -0.55,-0.13 -0.8,-0.07 -0.25,0.05 -0.47,0.18 -0.67,0.38 -0.22,0.22 -0.36,0.46 -0.42,0.72 -0.06,0.26 -0.04,0.53 0.06,0.81 0.1,0.28 0.28,0.54 0.54,0.8l3.13 3.13c0.26,0.26 0.53,0.44 0.8,0.54 0.27,0.1 0.54,0.12 0.8,0.06 0.26,-0.06 0.5,-0.2 0.72,-0.42 0.2,-0.2 0.33,-0.43 0.38,-0.67 0.05,-0.24 0.03,-0.51 -0.07,-0.79 -0.1,-0.28 -0.28,-0.58 -0.55,-0.89l0 0 1.28 -1.28 0 0c0.52,0.59 0.88,1.18 1.07,1.74 0.19,0.56 0.21,1.11 0.07,1.64 -0.15,0.53 -0.46,1.03 -0.93,1.5zm-0.32 -8.42l2 -2c0.17,-0.17 0.27,-0.35 0.32,-0.56 0.05,-0.2 0.03,-0.41 -0.05,-0.62 -0.08,-0.21 -0.21,-0.41 -0.41,-0.61l-0.54 -0.54c-0.2,-0.2 -0.4,-0.33 -0.62,-0.42 -0.21,-0.08 -0.42,-0.1 -0.63,-0.05 -0.21,0.05 -0.39,0.16 -0.56,0.32l-2 2 -1.2 -1.2 1.99 -1.99c0.44,-0.44 0.9,-0.73 1.39,-0.88 0.49,-0.15 0.98,-0.15 1.48,-0.01 0.49,0.15 0.96,0.44 1.39,0.87l0.65 0.65c0.43,0.43 0.71,0.89 0.85,1.37 0.14,0.49 0.14,0.98 -0.02,1.47 -0.15,0.49 -0.44,0.96 -0.88,1.39l-1.99 1.99 -1.2 -1.2zm-4.29 -3.06l1.25 -1.25 7.96 7.96 -1.25 1.25 -7.96 -7.96zm16.22 -0.14c-0.49,0.49 -1.02,0.82 -1.58,0.99 -0.57,0.17 -1.13,0.17 -1.69,0 -0.56,-0.17 -1.09,-0.5 -1.59,-1l-3.25 -3.25c-0.5,-0.5 -0.83,-1.03 -1,-1.59 -0.17,-0.56 -0.17,-1.13 0,-1.69 0.17,-0.56 0.5,-1.09 0.99,-1.58 0.49,-0.49 1.02,-0.82 1.58,-0.99 0.57,-0.17 1.13,-0.17 1.69,0 0.56,0.17 1.09,0.5 1.59,1l3.25 3.25c0.5,0.5 0.83,1.03 1,1.59 0.17,0.56 0.17,1.13 0,1.69 -0.17,0.56 -0.5,1.09 -0.99,1.58zm-1.24 -1.24c0.23,-0.23 0.39,-0.48 0.46,-0.76 0.07,-0.27 0.07,-0.55 -0.02,-0.82 -0.09,-0.27 -0.26,-0.54 -0.5,-0.78l-3.22 -3.22c-0.24,-0.24 -0.5,-0.41 -0.78,-0.5 -0.28,-0.09 -0.55,-0.1 -0.82,-0.02 -0.27,0.08 -0.52,0.23 -0.76,0.46 -0.23,0.23 -0.39,0.49 -0.47,0.76 -0.08,0.27 -0.07,0.54 0.02,0.82 0.09,0.28 0.26,0.54 0.5,0.78l3.22 3.22c0.24,0.24 0.51,0.41 0.78,0.5 0.28,0.09 0.55,0.1 0.82,0.02 0.27,-0.07 0.53,-0.23 0.76,-0.46zm-0.06 -13.54l1.27 -1.27 7.96 7.96 -1.27 1.27 -7.96 -7.96zm4.27 6.8c-0.4,0.4 -0.84,0.67 -1.3,0.78 -0.46,0.12 -0.93,0.09 -1.41,-0.09 -0.48,-0.18 -0.96,-0.5 -1.42,-0.96l-3.33 -3.33 1.27 -1.27 3.36 3.36c0.33,0.33 0.67,0.51 1.01,0.54 0.34,0.03 0.65,-0.1 0.94,-0.39 0.33,-0.33 0.48,-0.68 0.46,-1.05 -0.02,-0.37 -0.21,-0.74 -0.56,-1.1l-0.68 -0.68 0.35 -0.35 0.85 0.85c0.44,0.44 0.76,0.88 0.94,1.32 0.19,0.44 0.24,0.86 0.16,1.27 -0.08,0.41 -0.29,0.78 -0.63,1.12zm4.08 -7.93l-2.04 -5.17 1.4 -1.4 2.44 6.68 -1.8 -0.11zm0.81 0.85l0.49 -1.72 6.35 1.93 -1.49 1.49 -5.35 -1.69zm-6.44 -2.44l1.25 -1.25 7.96 7.96 -1.25 1.25 -7.96 -7.96zm3.99 2.82l2.39 -2.39 1.2 1.2 -2.39 2.39 -1.2 -1.2zm3.9 -10.71l0.95 -0.95 10.39 5.53 -1.32 1.32 -7.44 -4.27 4.27 7.44 -1.32 1.32 -5.53 -10.39zm4.17 6.38l3.23 -3.23 1.19 1.19 -3.23 3.23 -1.19 -1.19z"/>
 </g>
</svg>
